Hanif_Medium_2_5_grf.mot
version=1
nRows=21
nColumns=19
inDegrees=yes
endheader
time	right_ground_force_vx	right_ground_force_vy	right_ground_force_vz	right_ground_force_px	right_ground_force_py	right_ground_force_pz	right_ground_torque_x	right_ground_torque_y	right_ground_torque_z	left_ground_force_vx	left_ground_force_vy	left_ground_force_vz	left_ground_force_px	left_ground_force_py	left_ground_force_pz	left_ground_torque_x	left_ground_torque_y	left_ground_torque_z
3.350000	7.672520	290.049000	20.762900	0.198205	0.000000	-1.455390	-14.540500	5.717490	-0.141790	-1.559780	293.593000	-19.846000	0.208375	0.000000	-0.971873	20.242800	-3.925840	2.742810
3.355000	7.168030	289.096000	20.490500	0.199002	0.000000	-1.455730	-14.399000	5.757380	0.092643	-1.854460	293.105000	-19.527800	0.208651	0.000000	-0.971999	20.250600	-3.893240	2.814960
3.360000	7.155630	287.841000	20.304700	0.199138	0.000000	-1.455080	-14.528400	5.535980	0.115490	-2.075100	291.747000	-18.701800	0.209045	0.000000	-0.972002	20.160800	-3.835100	2.904590
3.365000	6.726080	288.763000	19.778600	0.199026	0.000000	-1.455040	-14.595000	5.543910	0.073686	-2.169600	291.154000	-18.706800	0.209178	0.000000	-0.971559	19.992200	-3.853340	2.940340
3.370000	6.131580	286.650000	19.761500	0.199109	0.000000	-1.455440	-14.381900	5.583850	0.107058	-2.382570	289.006000	-18.515500	0.209458	0.000000	-0.972105	20.006200	-3.833710	3.000760
3.375000	5.801440	285.782000	18.782000	0.198940	0.000000	-1.455620	-14.295200	5.424730	0.032965	-2.369280	288.546000	-18.193600	0.209924	0.000000	-0.972019	19.949100	-3.798630	3.124620
3.380000	5.926470	283.848000	18.649400	0.199526	0.000000	-1.455300	-14.285600	5.370970	0.198015	-2.166160	288.394000	-17.900500	0.210383	0.000000	-0.971763	19.861900	-3.822990	3.252600
3.385000	5.658850	284.289000	18.164900	0.199163	0.000000	-1.455760	-14.180000	5.445150	0.090913	-2.477710	285.565000	-18.042300	0.210892	0.000000	-0.972416	19.859400	-3.864880	3.377780
3.390000	5.807630	281.653000	18.126400	0.198781	0.000000	-1.454880	-14.291200	5.455360	-0.012760	-2.412980	287.610000	-17.923900	0.210665	0.000000	-0.971697	19.793300	-3.868970	3.330790
3.395000	5.363710	280.809000	17.933100	0.198216	0.000000	-1.455270	-14.148900	5.404940	-0.175293	-2.368820	284.242000	-17.758800	0.211149	0.000000	-0.972136	19.686300	-3.821500	3.430420
3.400000	5.696790	281.047000	18.166600	0.198755	0.000000	-1.455950	-13.962500	5.472590	-0.016075	-2.872940	285.080000	-17.848900	0.210971	0.000000	-0.972730	19.921600	-3.877500	3.395190
3.405000	5.592740	280.442000	18.675800	0.198345	0.000000	-1.454830	-14.249700	5.393720	-0.126096	-3.511820	283.773000	-18.140100	0.211138	0.000000	-0.971720	19.552900	-3.761400	3.429400
3.410000	5.698240	278.151000	18.690900	0.198863	0.000000	-1.455800	-13.859000	5.331060	0.021442	-3.604250	282.282000	-17.664000	0.211653	0.000000	-0.971558	19.407300	-3.813640	3.556510
3.415000	5.803320	277.844000	19.218900	0.198198	0.000000	-1.456010	-13.784100	5.305960	-0.156188	-4.423640	281.443000	-17.194900	0.212545	0.000000	-0.972763	19.701200	-3.741030	3.791410
3.420000	5.962350	277.918000	19.115300	0.197793	0.000000	-1.456660	-13.605700	5.270940	-0.273953	-4.691720	280.146000	-16.866700	0.213373	0.000000	-0.973180	19.730900	-3.641310	3.999090
3.425000	6.057300	277.918000	19.256000	0.198062	0.000000	-1.456040	-13.776200	5.320140	-0.193668	-4.833200	278.262000	-16.570600	0.213257	0.000000	-0.973198	19.607500	-3.707930	3.942880
3.430000	5.971680	276.945000	19.412100	0.198665	0.000000	-1.456000	-13.741300	5.214860	-0.026835	-5.840220	278.506000	-16.358700	0.213217	0.000000	-0.972862	19.546100	-3.628930	3.930900
3.435000	5.865540	275.966000	19.129900	0.198228	0.000000	-1.456620	-13.523400	5.180850	-0.152381	-6.008800	276.809000	-16.485800	0.214588	0.000000	-0.972572	19.351300	-3.634890	4.293710
3.440000	5.663310	275.578000	19.413700	0.199188	0.000000	-1.456760	-13.469000	5.222870	0.123345	-6.021990	276.020000	-16.115800	0.215293	0.000000	-0.973032	19.424200	-3.634680	4.472300
3.445000	5.508660	275.058000	19.193000	0.198897	0.000000	-1.455410	-13.818100	5.171330	0.036501	-6.550770	277.676000	-16.480300	0.214102	0.000000	-0.972254	19.330500	-3.563930	4.167960
3.450000	5.352750	274.099000	19.074900	0.198633	0.000000	-1.456800	-13.391000	5.199290	-0.033067	-6.713280	277.380000	-16.379100	0.214751	0.000000	-0.972597	19.410000	-3.633520	4.347960
